<?xml version="1.0" encoding="utf-8"?>
<!-- Generator: Adobe Illustrator 25.1.0, SVG Export Plug-In . SVG Version: 6.00 Build 0)  -->
<svg version="1.1" id="Layer_1" xmlns="http://www.w3.org/2000/svg" xmlns:xlink="http://www.w3.org/1999/xlink" x="0px" y="0px"
	 viewBox="0 0 595.28 841.89" style="enable-background:new 0 0 595.28 841.89;" xml:space="preserve">
<style type="text/css">
	.st0{fill:#231F20;}
	.st1{fill:#FFFFFF;}
	.st2{fill:none;}
</style>
<path class="st0" d="M25.04,288.73c18.36-21.28,42.42-6.98,59.72-28.39c19.47-24.09-1.9-53.43,19-79.5
	c17.1-21.32,46.1-20.04,48.86-19.88c38.49,2.3,70.74,44.21,65.15,70.98c-7.25,34.72-77.87,42.81-76.01,51.11
	c1.15,5.16,29.83,8.26,59.72-2.84c46.77-17.37,47.16-51.17,95.02-68.14c10.53-3.73,31.82-10.99,57.01-5.68
	c25.68,5.42,29.49,18.43,51.58,22.71c27.05,5.25,36.02-11.42,73.3-19.88c7.74-1.76,78.61-17.84,100.44,17.04
	c14.29,22.83,5.86,64.75-13.57,73.82c-25.35,11.83-49.76-41.43-97.73-36.91c-30.31,2.85-33.91,25.37-67.87,28.39
	c-35.55,3.17-41.35-20.64-73.3-22.71c-60.88-3.95-80.66,79.84-146.59,79.5c-34.13-0.17-39.73-22.68-73.3-17.04
	c-45.23,7.6-60.72,52.75-78.73,45.43C9.69,369.4,2.63,314.71,25.04,288.73z"/>
<path class="st0" d="M112.11,425.88c0.15,24.76,6.78,32.47,1.2,44.91c-6.99,15.57-27.31,25.66-38.32,19.93
	c-17.17-8.94-10.32-56.76-3.74-81.12c3.43-12.69,5.76-20.16,7-23.04c3.77-8.75,13.26-30.75,32.75-41.32
	c18.98-10.29,45.22-9.34,61.56,5.11c11.67,10.32,13.22,23.05,20.46,78.16c10.37,79.01,12.94,96.76,22.1,120.17
	c10.87,27.78,20.47,51.35,39.86,57.82c38.59,12.87,90.42-65.36,97.5-76.3c19.98-30.88,29.8-60.83,34.89-81.07
	c0.22-0.86,0.5-1.93,0.86-3.39c2.31-9.38,24.26-92.19-7.17-111.53c-7.85-4.83-27.09-4.83-37.95-5.07c0,0-8.12-0.18-14.38,1.79
	c-1.17,0.37-2.42,0.8-2.42,0.8c-0.01,0-0.01,0-0.01,0c-4.12,1.45-7.78,3.22-7.69,3.18c5.56,5.75,13.31,15.6,17.07,29.88
	c9.06,34.41-10.36,74.14-22.19,73.48c-8.37-0.47-17.77-21.45-26.13-94.08c3.54-14.72,12.74-43.53,35.78-56.14
	c38.11-20.86,93.85,13.71,116.4,53.7c45.63,80.94-18.68,230.22-112.05,286.74c-15.82,9.58-71.26,43.13-116.59,17.77
	c-32.15-17.98-44.74-60.36-53.85-90.13c-2.93-9.58-4.82-17.77-16.43-104.26c-8.25-61.47-10.34-79.99-14.73-80.12
	C120.52,371.59,111.94,398.87,112.11,425.88z"/>
<polygon class="st0" points="337.1,565.73 382.48,551.53 399.49,591.28 427.84,629.14 490.23,253.39 545.92,273.43 459.04,670.78 
	441.51,721.89 "/>
<path class="st1" d="M161.04,197.87c14.26,6.25,20.51,28.07,12.65,42.59c-6.61,12.22-20.76,14.73-24.68,15.43
	c-14.19,2.52-34.18-1.84-38-14c-2.87-9.13,4.64-18.68,8.93-24.14C122.39,214.62,142.08,189.56,161.04,197.87z"/>
<path class="st2" d="M780,505.89"/>
</svg>
