  0
SECTION
  2
HEADER
  9
$ACADVER
  1
AC1006
  9
$EXTMIN
 10
0.000000
 20
0.000000
 30
0.000000
  9
$EXTMAX
 10
671.000000
 20
657.000000
 30
0.000000
  0
ENDSEC
  0
SECTION
  2
ENTITIES
  0
POLYLINE
  8
0
 66
1
 70
1
  0
VERTEX
  8
0
 10
71.000000
 20
593.970503
 42
-0.018565
  0
VERTEX
  8
0
 10
70.952490
 20
592.691343
 42
-0.000527
  0
VERTEX
  8
0
 10
70.539850
 20
587.222012
 42
-0.001072
  0
VERTEX
  8
0
 10
70.033736
 20
580.788016
 42
-0.000737
  0
VERTEX
  8
0
 10
69.433533
 20
573.495430
 42
0.001674
  0
VERTEX
  8
0
 10
68.855710
 20
566.310070
 42
0.002744
  0
VERTEX
  8
0
 10
68.420177
 20
560.221202
 42
0.000359
  0
VERTEX
  8
0
 10
68.067150
 20
554.814438
 42
0.252100
  0
VERTEX
  8
0
 10
68.183533
 20
554.560287
 42
0.144854
  0
VERTEX
  8
0
 10
68.788946
 20
554.332577
 42
0.000037
  0
VERTEX
  8
0
 10
97.737863
 20
552.245407
 42
0.000817
  0
VERTEX
  8
0
 10
125.949571
 20
550.259813
 42
0.001038
  0
VERTEX
  8
0
 10
152.000000
 20
548.523448
 42
0.003285
  0
VERTEX
  8
0
 10
192.114093
 20
546.197840
 42
0.002242
  0
VERTEX
  8
0
 10
237.731540
 20
544.058783
 42
0.002100
  0
VERTEX
  8
0
 10
279.920998
 20
542.447486
 42
0.008417
  0
VERTEX
  8
0
 10
305.750000
 20
542.004704
 42
-0.004611
  0
VERTEX
  8
0
 10
311.593213
 20
541.949019
 42
-0.007726
  0
VERTEX
  8
0
 10
316.501854
 20
541.781069
 42
-0.002392
  0
VERTEX
  8
0
 10
320.673986
 20
541.553726
 42
-0.421368
  0
VERTEX
  8
0
 10
320.937164
 20
541.250000
 42
-0.214730
  0
VERTEX
  8
0
 10
320.665253
 20
540.760013
 42
-0.000039
  0
VERTEX
  8
0
 10
296.401577
 20
522.654688
 42
-0.000848
  0
VERTEX
  8
0
 10
269.472992
 20
502.635060
 42
-0.000512
  0
VERTEX
  8
0
 10
237.500000
 20
479.000000
 42
0.000000
  0
VERTEX
  8
0
 10
154.125673
 20
417.500000
 42
0.000000
  0
VERTEX
  8
0
 10
154.064779
 20
412.000000
 42
0.012295
  0
VERTEX
  8
0
 10
154.119481
 20
407.953531
 42
0.000253
  0
VERTEX
  8
0
 10
154.901882
 20
387.700000
 42
0.000593
  0
VERTEX
  8
0
 10
155.856309
 20
364.030914
 42
0.000399
  0
VERTEX
  8
0
 10
157.000000
 20
337.000000
 42
-0.000149
  0
VERTEX
  8
0
 10
158.148610
 20
310.169936
 42
-0.000235
  0
VERTEX
  8
0
 10
159.116576
 20
287.145142
 42
-0.000052
  0
VERTEX
  8
0
 10
159.954955
 20
266.925549
 42
-0.010149
  0
VERTEX
  8
0
 10
159.998057
 20
264.877080
 42
0.153233
  0
VERTEX
  8
0
 10
160.537101
 20
263.163918
 42
0.075510
  0
VERTEX
  8
0
 10
162.125610
 20
261.491509
 42
0.031761
  0
VERTEX
  8
0
 10
165.375694
 20
259.282829
 42
0.004247
  0
VERTEX
  8
0
 10
172.546591
 20
255.130325
 42
-0.021767
  0
VERTEX
  8
0
 10
220.327516
 20
225.179007
 42
-0.028955
  0
VERTEX
  8
0
 10
260.772651
 20
193.701921
 42
-0.032789
  0
VERTEX
  8
0
 10
292.008244
 20
162.503871
 42
-0.065204
  0
VERTEX
  8
0
 10
311.437219
 20
133.500000
 42
-0.036631
  0
VERTEX
  8
0
 10
318.399013
 20
116.406710
 42
-0.065074
  0
VERTEX
  8
0
 10
321.170086
 20
101.481621
 42
-0.064031
  0
VERTEX
  8
0
 10
320.031541
 20
86.181469
 42
-0.034353
  0
VERTEX
  8
0
 10
314.957091
 20
67.906176
 42
0.008779
  0
VERTEX
  8
0
 10
310.121478
 20
53.409815
 42
0.022392
  0
VERTEX
  8
0
 10
307.277805
 20
42.704407
 42
0.027178
  0
VERTEX
  8
0
 10
306.022568
 20
34.951575
 42
0.169222
  0
VERTEX
  8
0
 10
306.922954
 20
31.090423
 42
0.391334
  0
VERTEX
  8
0
 10
309.686018
 20
30.354193
 42
0.053373
  0
VERTEX
  8
0
 10
315.107965
 20
34.002335
 42
0.036904
  0
VERTEX
  8
0
 10
322.153956
 20
40.871462
 42
0.017122
  0
VERTEX
  8
0
 10
330.293955
 20
50.732229
 42
0.000000
  0
VERTEX
  8
0
 10
334.929408
 20
56.756347
 42
0.000000
  0
VERTEX
  8
0
 10
331.976837
 20
272.128174
 42
-0.000165
  0
VERTEX
  8
0
 10
330.852797
 20
356.137168
 42
-0.000239
  0
VERTEX
  8
0
 10
329.920940
 20
430.256401
 42
-0.000118
  0
VERTEX
  8
0
 10
329.173969
 20
493.248135
 42
-0.004124
  0
VERTEX
  8
0
 10
329.124204
 20
508.000000
 42
0.000000
  0
VERTEX
  8
0
 10
329.224142
 20
528.500000
 42
0.000000
  0
VERTEX
  8
0
 10
330.624989
 20
517.561842
 42
0.018844
  0
VERTEX
  8
0
 10
334.745839
 20
492.823226
 42
0.030243
  0
VERTEX
  8
0
 10
340.310272
 20
472.173226
 42
0.036104
  0
VERTEX
  8
0
 10
347.138743
 20
455.833947
 42
0.072501
  0
VERTEX
  8
0
 10
355.161730
 20
444.422510
 42
0.117159
  0
VERTEX
  8
0
 10
367.338375
 20
436.444513
 42
0.145843
  0
VERTEX
  8
0
 10
380.787933
 20
435.675481
 42
0.102505
  0
VERTEX
  8
0
 10
396.044604
 20
442.798891
 42
0.039521
  0
VERTEX
  8
0
 10
413.695902
 20
458.284003
 42
0.007832
  0
VERTEX
  8
0
 10
421.114440
 20
466.151860
 42
0.032858
  0
VERTEX
  8
0
 10
425.172191
 20
471.224913
 42
0.056745
  0
VERTEX
  8
0
 10
427.287555
 20
475.137920
 42
0.095562
  0
VERTEX
  8
0
 10
427.996262
 20
478.789838
 42
0.119005
  0
VERTEX
  8
0
 10
426.531025
 20
484.889237
 42
0.051533
  0
VERTEX
  8
0
 10
421.957229
 20
491.937335
 42
0.040624
  0
VERTEX
  8
0
 10
414.603263
 20
499.677622
 42
0.022485
  0
VERTEX
  8
0
 10
404.500000
 20
507.928587
 42
0.009712
  0
VERTEX
  8
0
 10
395.371188
 20
514.451696
 42
0.014011
  0
VERTEX
  8
0
 10
387.032965
 20
519.831464
 42
0.012055
  0
VERTEX
  8
0
 10
377.522515
 20
525.287656
 42
0.005083
  0
VERTEX
  8
0
 10
364.500000
 20
532.176720
 42
0.000000
  0
VERTEX
  8
0
 10
347.500000
 20
540.949911
 42
0.000000
  0
VERTEX
  8
0
 10
373.500000
 20
540.989482
 42
0.004051
  0
VERTEX
  8
0
 10
399.403567
 20
541.238758
 42
0.001919
  0
VERTEX
  8
0
 10
432.791550
 20
541.958755
 42
0.001920
  0
VERTEX
  8
0
 10
466.267002
 20
542.937819
 42
0.003933
  0
VERTEX
  8
0
 10
492.500000
 20
544.012552
 42
0.003680
  0
VERTEX
  8
0
 10
522.269849
 20
545.686552
 42
0.002326
  0
VERTEX
  8
0
 10
556.975462
 20
548.056567
 42
0.000243
  0
VERTEX
  8
0
 10
593.091880
 20
550.709421
 42
0.175872
  0
VERTEX
  8
0
 10
594.801094
 20
551.476793
 42
0.279403
  0
VERTEX
  8
0
 10
594.976030
 20
552.145927
 42
0.000159
  0
VERTEX
  8
0
 10
588.871407
 20
572.639194
 42
0.000321
  0
VERTEX
  8
0
 10
582.854543
 20
592.767252
 42
0.112881
  0
VERTEX
  8
0
 10
582.079518
 20
594.133742
 42
0.209390
  0
VERTEX
  8
0
 10
581.489041
 20
594.395485
 42
0.000008
  0
VERTEX
  8
0
 10
506.690546
 20
594.725593
 42
0.000386
  0
VERTEX
  8
0
 10
424.165332
 20
595.024743
 42
0.000232
  0
VERTEX
  8
0
 10
326.250000
 20
595.258616
 42
0.000114
  0
VERTEX
  8
0
 10
164.739939
 20
595.532407
 42
0.001628
  0
VERTEX
  8
0
 10
107.045918
 20
595.429130
 42
0.000626
  0
VERTEX
  8
0
 10
72.230041
 20
595.209865
 42
0.412004
  0
SEQEND
  0
POLYLINE
  8
0
 66
1
 70
1
  0
VERTEX
  8
0
 10
328.662281
 20
531.750000
 42
-0.174857
  0
VERTEX
  8
0
 10
328.474999
 20
531.540618
 42
-0.447206
  0
VERTEX
  8
0
 10
328.306058
 20
531.601562
 42
-0.078554
  0
VERTEX
  8
0
 10
328.189089
 20
532.108560
 42
-0.017491
  0
VERTEX
  8
0
 10
328.157895
 20
533.000000
 42
-0.017491
  0
VERTEX
  8
0
 10
328.189089
 20
533.891440
 42
-0.078554
  0
VERTEX
  8
0
 10
328.306058
 20
534.398438
 42
-0.447206
  0
VERTEX
  8
0
 10
328.474999
 20
534.459382
 42
-0.174857
  0
VERTEX
  8
0
 10
328.662281
 20
534.250000
 42
-0.057986
  0
VERTEX
  8
0
 10
328.818615
 20
533.679992
 42
-0.037979
  0
VERTEX
  8
0
 10
328.870340
 20
533.000000
 42
-0.037979
  0
VERTEX
  8
0
 10
328.818615
 20
532.320008
 42
-0.057986
  0
SEQEND
  0
POLYLINE
  8
0
 66
1
 70
1
  0
VERTEX
  8
0
 10
279.000000
 20
470.540807
 42
0.011080
  0
VERTEX
  8
0
 10
279.026224
 20
469.357605
 42
0.000006
  0
VERTEX
  8
0
 10
280.626031
 20
433.293577
 42
0.000081
  0
VERTEX
  8
0
 10
282.413101
 20
393.166466
 42
0.000050
  0
VERTEX
  8
0
 10
284.535426
 20
345.790807
 42
-0.000346
  0
VERTEX
  8
0
 10
286.636801
 20
298.252232
 42
-0.000551
  0
VERTEX
  8
0
 10
288.360977
 20
257.592549
 42
-0.000103
  0
VERTEX
  8
0
 10
289.836172
 20
221.695082
 42
-0.028837
  0
VERTEX
  8
0
 10
289.785426
 20
218.673190
 42
0.000000
  0
VERTEX
  8
0
 10
289.500000
 20
214.846379
 42
0.000000
  0
VERTEX
  8
0
 10
249.800089
 20
243.997770
 42
0.000000
  0
VERTEX
  8
0
 10
210.100178
 20
273.149161
 42
0.000000
  0
VERTEX
  8
0
 10
209.590892
 20
277.324580
 42
-0.020407
  0
VERTEX
  8
0
 10
209.336707
 20
280.472824
 42
-0.000289
  0
VERTEX
  8
0
 10
208.593172
 20
299.441495
 42
-0.000803
  0
VERTEX
  8
0
 10
207.778840
 20
321.443183
 42
-0.000529
  0
VERTEX
  8
0
 10
206.909567
 20
346.752849
 42
0.000000
  0
VERTEX
  8
0
 10
204.737527
 20
412.005698
 42
0.000000
  0
VERTEX
  8
0
 10
207.118763
 20
413.920063
 42
0.002862
  0
VERTEX
  8
0
 10
208.887527
 20
415.358786
 42
0.000046
  0
VERTEX
  8
0
 10
218.788012
 20
423.508060
 42
0.000121
  0
VERTEX
  8
0
 10
230.297923
 20
432.988554
 42
0.000080
  0
VERTEX
  8
0
 10
243.500000
 20
443.871794
 42
-0.000939
  0
VERTEX
  8
0
 10
256.589599
 20
454.624599
 42
-0.001535
  0
VERTEX
  8
0
 10
267.732812
 20
463.686525
 42
-0.000161
  0
VERTEX
  8
0
 10
277.712710
 20
471.746331
 42
-0.155882
  0
VERTEX
  8
0
 10
278.250000
 20
471.954579
 42
-0.192523
  0
VERTEX
  8
0
 10
278.536083
 20
471.859805
 42
-0.095982
  0
VERTEX
  8
0
 10
278.779688
 20
471.558020
 42
-0.072461
  0
VERTEX
  8
0
 10
278.944749
 20
471.095923
 42
-0.049642
  0
SEQEND
  0
ENDSEC
  0
EOF
