<?xml version="1.0" encoding="utf-8"?>
<!-- Generator: Adobe Illustrator 25.1.0, SVG Export Plug-In . SVG Version: 6.00 Build 0)  -->
<svg version="1.1" id="Layer_1" xmlns="http://www.w3.org/2000/svg" xmlns:xlink="http://www.w3.org/1999/xlink" x="0px" y="0px"
	 viewBox="0 0 595.28 841.89" style="enable-background:new 0 0 595.28 841.89;" xml:space="preserve">
<style type="text/css">
	.st0{fill:#231F20;stroke:#000000;stroke-width:4;stroke-miterlimit:10;}
	.st1{fill:#231F20;}
	.st2{fill:#231F20;stroke:#000000;stroke-width:0.75;stroke-miterlimit:10;}
	.st3{fill:#FFFFFF;}
</style>
<path class="st0" d="M190.4,274.16c-17.94-8.72-44.5,29.43-57.16,22.03c-8.24-4.82-7.91-27.37,1.36-34.42
	c5.17-3.93,9.52-0.3,21.77-2.75c4.96-0.99,20.13-4.03,25.86-13.77c5.91-10.05-3.77-17.86-5.44-41.3c-0.71-9.9-2.2-30.88,10.89-44.06
	c6.31-6.35,17.71-12.6,28.58-9.64c18.24,4.98,22.24,32.44,23.13,38.55c3.17,21.73-5.92,39.12-10.89,46.81
	c-7.94,12.3-20.8,13.24-20.41,20.65c0.31,6.03,8.18,10.68,13.61,12.39c15.24,4.82,30.67-7.31,35.38-11.01
	c11-8.65,8.42-12.11,25.86-34.42c16.22-20.74,17.74-16.84,27.22-31.67c6.88-10.76,9.65-18.42,16.33-19.27
	c5.96-0.76,11.15,4.38,16.33,9.64c15.34,15.59,14.23,29.61,23.13,31.67c3.52,0.81,8.75-2.66,19.05-9.64
	c13.18-8.92,23.55-17.57,27.22-20.65c19.22-16.15,20.2-18.8,25.86-19.27c7.1-0.6,7.36,3.44,27.22,11.01
	c13.39,5.11,17.46,4.87,20.41,9.64c1.56,2.52,1.89,4.95,0,22.03c-2.41,21.85-3.6,23.8-5.44,24.78c-4.78,2.56-9.36-3.81-24.5-9.64
	c-8.43-3.24-18.51-7.12-29.94-5.51c-11.98,1.69-20.66,8.73-28.58,15.14c-13.81,11.19-14.66,18.16-23.13,19.27
	c-10.23,1.34-19.46-7.44-21.77-9.64c-10.52-10-8.25-19.37-14.97-22.03c-10.22-4.04-26.07,13.4-32.66,20.65
	c-17.25,18.98-14.93,27.81-31.3,44.06c-8.3,8.24-17.08,16.96-31.3,19.27c-1.31,0.21-21.5,3.19-36.74-9.64
	C194.99,284.7,197.64,277.68,190.4,274.16z"/>
<path class="st1" d="M514,692.4"/>
<path class="st2" d="M282.23,684.52c-7.1-5.23-16.24-13.59-20-25.25c-5.39-16.73,5.79-23.25,3.2-44.74
	c-0.35-2.9-5.27-14.65-15.11-38.13c-8.14-19.42-10.5-24.05-15.71-29.85c-7.12-7.94-14.99-12.97-24.41-18.99
	c-5.38-3.44-14.26-9.06-26.74-14.21c-22.61-9.33-28.71-5.41-34.85-11.64c-7.63-7.73-0.77-16.34,3.44-48.06
	c2.49-18.76,2.88-36.77,2.97-41.43c0.5-26.07-2.2-30,2.73-38.11c4.99-8.21,10.11-8.04,35.37-23.35
	c18.79-11.39,15.98-11.49,39.55-26.29c11.71-7.35,13.11-7.77,41.4-24.45c27.48-16.2,41.26-24.36,43.61-27.58
	c16.23-22.26,0.11-45.39,15.85-55.23c8.91-5.57,22.49-3.42,33.71-0.15L282.23,684.52z"/>
<path class="st1" d="M306.13,301.45c18.81-16.95,51.96-29.47,77.49-31.22c37.57-2.57,48.74,19.14,55.53,29.47
	c9.19,13.99,8.24,27.73,6.33,55.2c-0.07,1.03-0.17,2.55-0.37,4.64c-1.21,12.61-3.52,34.22-17.28,58.45
	c-7.47,13.15-19.58,34.5-34.96,38.23c-13.81,3.35-30.92-7.48-33.41-9.11c-0.24-0.15-1.32-0.87-2.7-1.92
	c-5.26-4.04-16.88-12.97-13.88-25.98c1.9-8.24,10.35-21.14,20.03-23.77c14.28,15.32,23.59,17.05,29.7,15.05
	c15.26-5,22.01-36.97,18.53-59.56c-0.81-5.25-6.66-43.28-31.99-39.12c-24.16,3.97-41.8,42.36-62.81,45.49
	C296.03,360.3,274.31,330.14,306.13,301.45z"/>
<path class="st3" d="M205.25,391.93l70.16-52.59c9.12-6.84,22.87,0.78,21.11,11.7l-23.54,146.09c-1.19,7.4-9.33,11.75-16.97,9.07
	l-52.02-18.23c-5.54-1.94-9.12-7.07-8.73-12.49l5.4-75.27C200.9,396.94,202.55,393.95,205.25,391.93z"/>
<line class="st3" x1="268.04" y1="450.31" x2="237.24" y2="447.4"/>
<path class="st3" d="M197,217.89c-10.04-11.65-8.74-34.86,4-43c5.27-3.36,13.66-4.9,20-1c9.22,5.68,8.26,19.29,8,23
	c-0.85,12.09-8.47,27.53-19,28C203.29,225.19,198.2,219.29,197,217.89z"/>
</svg>
