  0
SECTION
  2
HEADER
  9
$ACADVER
  1
AC1006
  9
$EXTMIN
 10
0.000000
 20
0.000000
 30
0.000000
  9
$EXTMAX
 10
871.000000
 20
710.000000
 30
0.000000
  0
ENDSEC
  0
SECTION
  2
ENTITIES
  0
POLYLINE
  8
0
 66
1
 70
1
  0
VERTEX
  8
0
 10
343.196869
 20
643.474100
 42
0.000155
  0
VERTEX
  8
0
 10
228.394726
 20
642.576522
 42
0.000259
  0
VERTEX
  8
0
 10
131.667037
 20
641.740140
 42
0.000004
  0
VERTEX
  8
0
 10
43.889998
 20
640.935064
 42
0.196528
  0
VERTEX
  8
0
 10
43.393327
 20
640.726660
 42
0.228855
  0
VERTEX
  8
0
 10
43.227881
 20
640.252074
 42
0.000705
  0
VERTEX
  8
0
 10
43.990585
 20
633.702726
 42
0.003746
  0
VERTEX
  8
0
 10
44.924542
 20
626.260039
 42
0.002310
  0
VERTEX
  8
0
 10
46.129250
 20
617.518098
 42
0.000000
  0
VERTEX
  8
0
 10
49.365583
 20
594.809946
 42
0.000000
  0
VERTEX
  8
0
 10
251.345704
 20
595.550710
 42
-0.000190
  0
VERTEX
  8
0
 10
366.671454
 20
595.929899
 42
-0.001614
  0
VERTEX
  8
0
 10
418.452036
 20
595.913380
 42
-0.000405
  0
VERTEX
  8
0
 10
452.131557
 20
595.766624
 42
-0.524441
  0
VERTEX
  8
0
 10
452.767449
 20
594.836365
 42
0.027935
  0
VERTEX
  8
0
 10
451.761261
 20
591.701200
 42
0.000077
  0
VERTEX
  8
0
 10
440.576558
 20
548.713852
 42
0.000034
  0
VERTEX
  8
0
 10
429.188362
 20
504.904285
 42
0.063648
  0
VERTEX
  8
0
 10
429.000000
 20
503.430566
 42
0.615406
  0
VERTEX
  8
0
 10
429.229094
 20
503.314926
 42
0.012305
  0
VERTEX
  8
0
 10
430.542188
 20
504.335063
 42
0.014862
  0
VERTEX
  8
0
 10
432.235168
 20
505.804483
 42
0.007863
  0
VERTEX
  8
0
 10
434.250000
 20
507.720519
 42
-0.020613
  0
VERTEX
  8
0
 10
436.660854
 20
509.898862
 42
-0.013960
  0
VERTEX
  8
0
 10
439.573438
 20
512.185766
 42
-0.014082
  0
VERTEX
  8
0
 10
442.516399
 20
514.240732
 42
-0.027141
  0
VERTEX
  8
0
 10
445.000000
 20
515.686358
 42
-0.023155
  0
VERTEX
  8
0
 10
448.393791
 20
517.228716
 42
-0.049264
  0
VERTEX
  8
0
 10
451.160897
 20
518.029838
 42
-0.037744
  0
VERTEX
  8
0
 10
454.462247
 20
518.387477
 42
-0.008956
  0
VERTEX
  8
0
 10
460.000000
 20
518.468041
 42
-0.011215
  0
VERTEX
  8
0
 10
464.889576
 20
518.341899
 42
-0.023312
  0
VERTEX
  8
0
 10
468.686392
 20
517.980741
 42
-0.027787
  0
VERTEX
  8
0
 10
471.971377
 20
517.325060
 42
-0.026036
  0
VERTEX
  8
0
 10
475.237177
 20
516.298235
 42
-0.026420
  0
VERTEX
  8
0
 10
480.159177
 20
514.161795
 42
-0.015422
  0
VERTEX
  8
0
 10
485.826399
 20
511.115723
 42
-0.015440
  0
VERTEX
  8
0
 10
491.196589
 20
507.786869
 42
-0.031352
  0
VERTEX
  8
0
 10
495.154906
 20
504.787294
 42
-0.168420
  0
VERTEX
  8
0
 10
497.183619
 20
501.292346
 42
-0.009020
  0
VERTEX
  8
0
 10
499.438632
 20
488.477668
 42
-0.004689
  0
VERTEX
  8
0
 10
502.994109
 20
464.427088
 42
-0.000258
  0
VERTEX
  8
0
 10
513.382457
 20
389.005329
 42
-0.000301
  0
VERTEX
  8
0
 10
523.039168
 20
318.310453
 42
-0.003862
  0
VERTEX
  8
0
 10
526.433332
 20
291.819361
 42
-0.003821
  0
VERTEX
  8
0
 10
528.167212
 20
276.411871
 42
-0.235351
  0
VERTEX
  8
0
 10
527.227551
 20
273.899214
 42
-0.013205
  0
VERTEX
  8
0
 10
525.818644
 20
272.652921
 42
-0.000030
  0
VERTEX
  8
0
 10
504.299037
 20
254.609293
 42
-0.000200
  0
VERTEX
  8
0
 10
480.054437
 20
234.299793
 42
-0.000124
  0
VERTEX
  8
0
 10
451.598959
 20
210.494275
 42
-0.000840
  0
VERTEX
  8
0
 10
416.534435
 20
181.274494
 42
-0.003139
  0
VERTEX
  8
0
 10
394.342915
 20
163.079232
 42
-0.000727
  0
VERTEX
  8
0
 10
377.709295
 20
149.654714
 42
-0.329706
  0
VERTEX
  8
0
 10
376.372598
 20
149.600389
 42
-0.036876
  0
VERTEX
  8
0
 10
375.365836
 20
150.398107
 42
-0.000045
  0
VERTEX
  8
0
 10
356.229602
 20
168.007614
 42
-0.000409
  0
VERTEX
  8
0
 10
334.825154
 20
187.740321
 42
-0.000252
  0
VERTEX
  8
0
 10
309.661783
 20
211.000000
 42
0.000000
  0
VERTEX
  8
0
 10
244.276288
 20
271.500000
 42
0.000000
  0
VERTEX
  8
0
 10
242.569998
 20
280.000000
 42
0.005837
  0
VERTEX
  8
0
 10
232.467138
 20
327.450623
 42
0.001267
  0
VERTEX
  8
0
 10
213.862659
 20
409.117212
 42
0.001180
  0
VERTEX
  8
0
 10
194.905071
 20
490.493089
 42
0.007240
  0
VERTEX
  8
0
 10
184.424960
 20
532.281855
 42
0.005144
  0
VERTEX
  8
0
 10
181.940027
 20
541.243592
 42
0.024679
  0
VERTEX
  8
0
 10
180.222247
 20
546.256628
 42
0.772317
  0
VERTEX
  8
0
 10
179.715377
 20
546.193483
 42
0.074226
  0
VERTEX
  8
0
 10
179.751763
 20
544.000000
 42
-0.026937
  0
VERTEX
  8
0
 10
180.042996
 20
541.384860
 42
-0.004674
  0
VERTEX
  8
0
 10
180.280206
 20
536.415625
 42
-0.005069
  0
VERTEX
  8
0
 10
180.445106
 20
530.572771
 42
-0.004520
  0
VERTEX
  8
0
 10
180.500000
 20
524.500000
 42
-0.004916
  0
VERTEX
  8
0
 10
180.421787
 20
516.545374
 42
-0.018115
  0
VERTEX
  8
0
 10
180.140943
 20
511.525715
 42
-0.028298
  0
VERTEX
  8
0
 10
179.596883
 20
507.893888
 42
-0.040767
  0
VERTEX
  8
0
 10
178.678153
 20
504.778438
 42
-0.129843
  0
VERTEX
  8
0
 10
173.498057
 20
497.621249
 42
-0.180566
  0
VERTEX
  8
0
 10
166.079551
 20
495.090353
 42
-0.106284
  0
VERTEX
  8
0
 10
155.637858
 20
497.648675
 42
-0.030726
  0
VERTEX
  8
0
 10
141.094964
 20
505.850005
 42
0.010613
  0
VERTEX
  8
0
 10
136.036695
 20
508.976999
 42
0.093249
  0
VERTEX
  8
0
 10
133.571703
 20
509.867038
 42
0.376745
  0
VERTEX
  8
0
 10
132.520492
 20
509.207899
 42
0.127665
  0
VERTEX
  8
0
 10
132.449618
 20
507.250000
 42
0.009690
  0
VERTEX
  8
0
 10
132.978817
 20
505.060519
 42
0.000017
  0
VERTEX
  8
0
 10
142.638038
 20
468.242021
 42
0.000129
  0
VERTEX
  8
0
 10
153.499205
 20
426.891334
 42
0.000080
  0
VERTEX
  8
0
 10
166.279073
 20
378.318581
 42
0.000000
  0
VERTEX
  8
0
 10
199.500000
 20
252.137161
 42
0.000000
  0
VERTEX
  8
0
 10
286.000000
 20
175.442915
 42
0.000338
  0
VERTEX
  8
0
 10
319.245345
 20
146.006374
 42
0.000555
  0
VERTEX
  8
0
 10
347.416885
 20
121.151921
 42
0.000036
  0
VERTEX
  8
0
 10
372.795942
 20
98.814391
 42
0.088723
  0
VERTEX
  8
0
 10
373.610672
 20
98.320811
 42
0.256924
  0
VERTEX
  8
0
 10
374.447492
 20
98.434699
 42
0.000138
  0
VERTEX
  8
0
 10
395.891878
 20
114.351353
 42
0.001704
  0
VERTEX
  8
0
 10
419.762751
 20
132.205730
 42
0.001032
  0
VERTEX
  8
0
 10
447.901920
 20
153.493690
 42
-0.000414
  0
VERTEX
  8
0
 10
476.056742
 20
174.848265
 42
-0.000675
  0
VERTEX
  8
0
 10
499.984351
 20
192.914686
 42
-0.000066
  0
VERTEX
  8
0
 10
521.423859
 20
209.052676
 42
-0.069788
  0
VERTEX
  8
0
 10
522.439597
 20
209.615195
 42
-0.241271
  0
VERTEX
  8
0
 10
523.482073
 20
209.503133
 42
-0.000152
  0
VERTEX
  8
0
 10
548.965956
 20
192.774819
 42
-0.001751
  0
VERTEX
  8
0
 10
577.395422
 20
173.957717
 42
-0.001057
  0
VERTEX
  8
0
 10
610.963980
 20
151.466947
 42
0.000418
  0
VERTEX
  8
0
 10
644.410980
 20
128.995631
 42
0.000696
  0
VERTEX
  8
0
 10
672.619241
 20
110.135070
 42
0.000020
  0
VERTEX
  8
0
 10
698.157320
 20
93.112730
 42
0.371519
  0
VERTEX
  8
0
 10
698.449107
 20
93.148965
 42
0.179533
  0
VERTEX
  8
0
 10
698.584764
 20
93.488079
 42
0.000003
  0
VERTEX
  8
0
 10
700.322053
 20
162.281259
 42
0.000206
  0
VERTEX
  8
0
 10
702.204094
 20
238.056870
 42
0.000124
  0
VERTEX
  8
0
 10
704.378760
 20
328.000000
 42
-0.000089
  0
VERTEX
  8
0
 10
706.575501
 20
419.113073
 42
-0.000134
  0
VERTEX
  8
0
 10
708.529525
 20
498.682813
 42
-0.000054
  0
VERTEX
  8
0
 10
710.231731
 20
566.952927
 42
-0.002984
  0
VERTEX
  8
0
 10
710.628612
 20
579.750000
 42
0.000000
  0
VERTEX
  8
0
 10
711.266656
 20
597.000000
 42
0.000000
  0
VERTEX
  8
0
 10
722.133328
 20
597.000000
 42
0.000000
  0
VERTEX
  8
0
 10
733.000000
 20
597.000000
 42
0.000000
  0
VERTEX
  8
0
 10
733.000000
 20
621.500000
 42
0.000000
  0
VERTEX
  8
0
 10
733.000000
 20
646.000000
 42
0.000000
  0
VERTEX
  8
0
 10
687.750000
 20
645.860565
 42
0.000905
  0
VERTEX
  8
0
 10
657.456120
 20
645.712398
 42
0.000056
  0
VERTEX
  8
0
 10
567.871893
 20
645.102023
 42
0.000083
  0
VERTEX
  8
0
 10
461.138013
 20
644.344948
 42
0.000062
  0
SEQEND
  0
POLYLINE
  8
0
 66
1
 70
1
  0
VERTEX
  8
0
 10
706.000000
 20
596.458578
 42
-0.179758
  0
VERTEX
  8
0
 10
705.859330
 20
596.079946
 42
-0.000384
  0
VERTEX
  8
0
 10
701.745379
 20
591.314929
 42
-0.002520
  0
VERTEX
  8
0
 10
697.069032
 20
585.961667
 42
-0.001554
  0
VERTEX
  8
0
 10
691.516184
 20
579.708578
 42
0.002578
  0
VERTEX
  8
0
 10
682.771930
 20
569.820902
 42
0.023914
  0
VERTEX
  8
0
 10
679.224073
 20
565.353115
 42
0.058942
  0
VERTEX
  8
0
 10
677.565298
 20
562.356504
 42
0.094449
  0
VERTEX
  8
0
 10
676.987805
 20
559.500000
 42
-0.009466
  0
VERTEX
  8
0
 10
676.491938
 20
543.015557
 42
-0.000043
  0
VERTEX
  8
0
 10
667.955324
 20
369.255129
 42
-0.000002
  0
VERTEX
  8
0
 10
659.042647
 20
188.174630
 42
-0.186160
  0
VERTEX
  8
0
 10
658.672075
 20
187.338741
 42
-0.278942
  0
VERTEX
  8
0
 10
658.155960
 20
187.211704
 42
-0.000299
  0
VERTEX
  8
0
 10
646.737701
 20
190.785215
 42
-0.002575
  0
VERTEX
  8
0
 10
633.925068
 20
194.876114
 42
-0.001564
  0
VERTEX
  8
0
 10
618.812540
 20
199.839537
 42
0.000000
  0
VERTEX
  8
0
 10
579.500000
 20
212.887328
 42
0.000000
  0
VERTEX
  8
0
 10
552.064742
 20
211.962255
 42
-0.000814
  0
VERTEX
  8
0
 10
541.529986
 20
211.624206
 42
-0.001342
  0
VERTEX
  8
0
 10
532.625490
 20
211.376899
 42
-0.000096
  0
VERTEX
  8
0
 10
524.629927
 20
211.177852
 42
-0.215043
  0
VERTEX
  8
0
 10
524.414672
 20
211.268591
 42
-0.442558
  0
VERTEX
  8
0
 10
524.437999
 20
211.542132
 42
-0.000019
  0
VERTEX
  8
0
 10
550.773649
 20
231.662050
 42
-0.000201
  0
VERTEX
  8
0
 10
575.754934
 20
250.729903
 42
-0.022760
  0
VERTEX
  8
0
 10
579.160947
 20
253.090395
 42
0.295600
  0
VERTEX
  8
0
 10
579.978619
 20
254.847993
 42
0.000031
  0
VERTEX
  8
0
 10
560.429778
 20
394.120484
 42
0.000052
  0
VERTEX
  8
0
 10
540.963113
 20
532.641577
 42
0.144486
  0
VERTEX
  8
0
 10
539.431371
 20
536.010700
 42
0.052222
  0
VERTEX
  8
0
 10
538.303709
 20
537.067044
 42
0.000316
  0
VERTEX
  8
0
 10
527.036063
 20
545.593239
 42
0.001308
  0
VERTEX
  8
0
 10
514.135013
 20
555.289681
 42
0.000833
  0
VERTEX
  8
0
 10
499.071653
 20
566.510700
 42
0.000000
  0
VERTEX
  8
0
 10
460.020154
 20
595.500000
 42
0.000000
  0
VERTEX
  8
0
 10
552.260077
 20
596.007814
 42
0.000071
  0
VERTEX
  8
0
 10
589.829117
 20
596.219996
 42
0.000077
  0
VERTEX
  8
0
 10
626.437335
 20
596.437600
 42
0.000072
  0
VERTEX
  8
0
 10
657.836539
 20
596.633623
 42
0.000372
  0
VERTEX
  8
0
 10
675.250000
 20
596.757814
 42
-0.001650
  0
VERTEX
  8
0
 10
687.041097
 20
596.811774
 42
-0.002752
  0
VERTEX
  8
0
 10
696.967188
 20
596.769815
 42
-0.000305
  0
VERTEX
  8
0
 10
705.782324
 20
596.678651
 42
-0.411009
  0
SEQEND
  0
ENDSEC
  0
EOF
